<svg width="145" height="41" viewBox="0 0 145 41" fill="none" xmlns="http://www.w3.org/2000/svg">
<path d="M1 20.3934L20.6066 1L10.8033 20.3934L20.6066 40L1 20.3934Z" fill="black" stroke="black" stroke-linejoin="round"/>
<path d="M15.7049 20.3934L35.3115 1L25.5082 20.3934L35.3115 40L15.7049 20.3934Z" fill="black" stroke="black" stroke-linejoin="round"/>
<path d="M45.3703 26.3509C45.1482 26.5012 44.8023 26.5763 44.3327 26.5763C43.8631 26.5763 43.5236 26.4921 43.3141 26.3239C43.1047 26.1496 43 25.9242 43 25.6477V25.4404C43 25.3322 43.0762 25.1008 43.2285 24.7462C43.3871 24.3856 43.4823 24.028 43.514 23.6734C43.7362 21.2332 43.8472 19.4212 43.8472 18.2372C43.8472 17.0532 43.8345 16.362 43.8091 16.1637C43.7838 15.9653 43.7235 15.7279 43.6283 15.4515C43.5394 15.175 43.495 15.0307 43.495 15.0187C43.495 14.7002 43.7108 14.5049 44.1423 14.4327C45.437 14.2164 47.3281 14.1082 49.8159 14.1082H50.4061C50.8757 14.1082 51.212 14.1683 51.4151 14.2885C51.6245 14.4087 51.7293 14.6341 51.7293 14.9646V15.181C51.7293 15.6197 51.5135 15.8391 51.0819 15.8391C50.9867 15.8391 50.79 15.8031 50.4917 15.7309C50.1935 15.6588 49.9142 15.6017 49.654 15.5596C49.4002 15.5116 48.8576 15.4875 48.0262 15.4875C47.2012 15.4875 46.6618 15.6708 46.4079 16.0374C46.1604 16.4041 46.0367 17.1253 46.0367 18.2011C46.0367 18.754 46.1287 19.1237 46.3127 19.31C46.5031 19.4903 46.941 19.5804 47.6264 19.5804C47.7978 19.5804 48.0548 19.5474 48.3975 19.4813C48.7402 19.4152 49.0353 19.3821 49.2828 19.3821C49.5303 19.3821 49.7492 19.4843 49.9396 19.6886C50.1364 19.893 50.2347 20.1815 50.2347 20.5541C50.2347 21.089 49.9428 21.3564 49.3589 21.3564L48.2547 21.2663C47.7724 21.2663 47.3408 21.3444 46.9601 21.5007C46.5793 21.6509 46.3191 21.8343 46.1795 22.0506C45.8368 22.5795 45.6654 23.463 45.6654 24.7011L45.713 25.7649C45.713 25.9993 45.5988 26.1946 45.3703 26.3509Z" fill="black"/>
<path d="M60.3538 26.8197H58.8973L58.6594 26.8107L55.7559 26.7656C55.6036 26.7596 55.3117 26.7566 54.8802 26.7566C54.0044 26.7566 53.5633 26.4921 53.557 25.9632C53.557 25.8671 53.6014 25.7228 53.6902 25.5305C53.7854 25.3382 53.8584 25.1639 53.9092 25.0076C53.9663 24.8514 54.0615 24.1602 54.1948 22.9341C54.328 21.708 54.3947 20.0643 54.3947 18.0028L54.4137 17.561V16.7767C54.4137 16.4642 54.3407 16.1216 54.1948 15.749C54.0552 15.3703 53.9853 15.1059 53.9853 14.9556C53.9853 14.7994 54.0774 14.6281 54.2614 14.4417C54.4455 14.2494 54.7374 14.1533 55.1372 14.1533H55.5941C56.0828 14.1533 56.4604 14.2464 56.7269 14.4327C56.9998 14.613 57.1363 14.8054 57.1363 15.0097C57.1363 15.208 57.0601 15.4815 56.9078 15.8301C56.7555 16.1727 56.6539 16.5754 56.6032 17.0381C56.4001 18.8833 56.2986 20.6322 56.2986 22.285L56.2795 22.7268L56.27 23.3939C56.27 24.3315 56.3811 24.8934 56.6032 25.0798C56.8253 25.2661 57.3584 25.3592 58.2024 25.3592C59.0465 25.3592 59.7573 25.2721 60.3348 25.0978C60.449 25.0617 60.6711 24.9806 61.0011 24.8544C61.3311 24.7282 61.5881 24.665 61.7722 24.665C62.1466 24.665 62.3338 24.8934 62.3338 25.3502C62.3338 25.9452 62.1879 26.3389 61.8959 26.5312C61.6104 26.7235 61.0963 26.8197 60.3538 26.8197Z" fill="black"/>
<path d="M73.1098 19.7157C73.1098 19.6976 73.1098 19.6796 73.1098 19.6616C73.1098 19.1387 73.0241 18.5767 72.8527 17.9757C72.5418 16.8638 72.0119 16.0975 71.263 15.6768C70.8061 15.4184 70.3555 15.2892 69.9112 15.2892H69.4638C68.9308 15.2892 68.4231 15.4454 67.9407 15.758C67.0396 16.341 66.4208 17.2335 66.0845 18.4355C65.875 19.1808 65.7703 19.917 65.7703 20.6442V21.2483C65.7703 22.4984 66.0749 23.5502 66.6842 24.4036C67.2998 25.251 68.1375 25.6748 69.1973 25.6748H69.3496C69.87 25.6748 70.365 25.5515 70.8346 25.3051C71.7168 24.8363 72.3609 23.9528 72.7671 22.6546C72.9828 21.9755 73.0907 21.2994 73.0907 20.6262L73.1098 20.3197V19.7157ZM75.3563 19.6436V20.2476C75.3563 21.1431 75.2072 22.0236 74.9089 22.889C74.3378 24.5539 73.3319 25.7258 71.8913 26.405C71.0536 26.8017 70.2 27 69.3306 27H68.9022C68.1978 27 67.5092 26.8558 66.8365 26.5673C65.4974 26.0023 64.5899 25.0287 64.114 23.6463C63.8347 22.835 63.6951 21.9995 63.6951 21.1401V20.7344C63.6951 19.881 63.8442 19.0065 64.1425 18.111C64.4471 17.2154 64.8787 16.4642 65.4371 15.8571C65.9956 15.2441 66.6429 14.7813 67.3791 14.4688C68.1153 14.1563 68.8673 14 69.6352 14H70.0636C70.8759 14 71.6025 14.1472 72.2435 14.4417C73.4937 15.0187 74.3631 15.9233 74.8518 17.1553C75.1881 18.0028 75.3563 18.8322 75.3563 19.6436Z" fill="black"/>
<path d="M85.78 15.0908C86.275 15.0908 86.6495 15.3944 86.9033 16.0014C86.9414 16.0975 87.0175 16.4882 87.1318 17.1734C87.246 17.8525 87.5284 18.9734 87.979 20.5361C88.4296 22.0987 88.7183 22.88 88.8453 22.88C89.0103 22.88 89.464 21.8703 90.2065 19.8509C90.4413 19.2138 90.7015 18.4085 90.9871 17.4348C91.2727 16.4552 91.4726 15.8361 91.5868 15.5777C91.8597 14.9706 92.304 14.6671 92.9196 14.6671C93.1988 14.6671 93.3384 14.9135 93.3384 15.4064C93.3384 15.5687 92.9132 16.981 92.0628 19.6436C91.2188 22.3061 90.6666 23.8957 90.4064 24.4126C89.9051 25.4103 89.3117 25.9092 88.6263 25.9092C88.1694 25.9092 87.7315 25.4914 87.3126 24.656C86.9826 23.9889 86.513 22.7238 85.9038 20.8606L85.4849 19.5624L85.3421 19.2649C85.2469 19.2649 84.8598 20.0222 84.1808 21.5368C83.5081 23.0513 83.0067 24.073 82.6767 24.6019C82.1754 25.4013 81.7121 25.801 81.2869 25.801C81.0203 25.801 80.7538 25.6808 80.4873 25.4404C80.2271 25.2 80.0208 24.9055 79.8685 24.5569C79.7162 24.2023 79.31 22.6997 78.65 20.0492C77.9964 17.3988 77.6695 15.9653 77.6695 15.749V15.4875C77.6695 15.3373 77.733 15.184 77.8599 15.0277C77.9868 14.8655 78.1772 14.7843 78.4311 14.7843C79.0911 14.7843 79.5893 15.2381 79.9256 16.1456C79.9891 16.3079 80.1097 16.7707 80.2874 17.534C80.465 18.2913 80.7443 19.3761 81.1251 20.7885C81.5058 22.2009 81.7724 22.9071 81.9247 22.9071C82.1531 22.9071 82.5308 22.1258 83.0575 20.5631C83.5842 19.0005 83.8984 17.8465 83.9999 17.1012C84.1078 16.35 84.2284 15.8692 84.3616 15.6588C84.5965 15.2802 85.0692 15.0908 85.78 15.0908Z" fill="black"/>
<path d="M102.601 17.3176V17.1553C102.601 16.5483 102.379 16.0885 101.934 15.776C101.496 15.4635 100.916 15.3072 100.192 15.3072H99.6497C99.1611 15.3072 98.8343 15.3613 98.6692 15.4695C98.5042 15.5777 98.4217 15.791 98.4217 16.1096C98.3964 16.3019 98.3837 16.4221 98.3837 16.4702L98.2885 18.138V18.2913L98.2599 18.742V18.8953L98.2504 19.0395C98.2504 19.2739 98.3043 19.4272 98.4122 19.4993C98.5265 19.5714 98.7454 19.6075 99.0691 19.6075H99.4594L99.5355 19.5985H99.6117L99.8496 19.5895L100.326 19.5534C100.986 19.5534 101.528 19.331 101.953 18.8863C102.385 18.4415 102.601 17.9186 102.601 17.3176ZM97.9934 24.8724C97.9934 25.1248 98.079 25.2961 98.2504 25.3863C98.4281 25.4764 98.8565 25.5215 99.5355 25.5215H99.7164C100.808 25.5215 101.604 25.3352 102.106 24.9626C102.734 24.4938 103.048 23.8597 103.048 23.0603V22.88C103.048 22.2069 102.801 21.675 102.306 21.2843C101.817 20.8877 101.122 20.6893 100.221 20.6893H99.4118C99.2214 20.7074 99.0215 20.7164 98.812 20.7164C98.3678 20.7164 98.1457 21.0259 98.1457 21.6449C98.1203 21.8733 98.1076 22.0146 98.1076 22.0687L98.0315 23.439V23.6103L97.9934 24.5388V24.8724ZM104.552 17.0832C104.552 18.0388 104.175 18.8352 103.419 19.4723C103.051 19.7788 102.867 19.9441 102.867 19.9681C102.867 19.9921 103.086 20.1424 103.524 20.4189C104.559 21.062 105.076 21.9845 105.076 23.1865C105.076 24.3826 104.527 25.3202 103.429 25.9993C102.553 26.5462 101.16 26.8197 99.2499 26.8197H99.0215L98.793 26.8107H98.5645C97.143 26.8107 96.2704 26.7776 95.9467 26.7115C95.6231 26.6394 95.4612 26.5192 95.4612 26.3509V26.2067C95.4612 26.0624 95.5564 25.81 95.7468 25.4494C95.8357 25.209 95.9023 24.8904 95.9467 24.4938C96.1244 22.9131 96.2133 21.107 96.2133 19.0756L96.2608 17.7954L96.2799 17.3807L96.2894 16.7497C96.2894 16.1847 96.245 15.752 96.1561 15.4515L96.0609 15.154C96.0165 15.0097 95.9943 14.8745 95.9943 14.7483C95.9943 14.5259 96.1657 14.3726 96.5084 14.2885C96.851 14.2043 97.5142 14.1623 98.4979 14.1623L98.7168 14.1533C98.8692 14.1472 99.0215 14.1442 99.1738 14.1442L100.097 14.1262C103.067 14.1262 104.552 15.1119 104.552 17.0832Z" fill="black"/>
<path d="M116.594 19.7157C116.594 19.6976 116.594 19.6796 116.594 19.6616C116.594 19.1387 116.509 18.5767 116.337 17.9757C116.026 16.8638 115.496 16.0975 114.747 15.6768C114.291 15.4184 113.84 15.2892 113.396 15.2892H112.948C112.415 15.2892 111.908 15.4454 111.425 15.758C110.524 16.341 109.905 17.2335 109.569 18.4355C109.359 19.1808 109.255 19.917 109.255 20.6442V21.2483C109.255 22.4984 109.559 23.5502 110.169 24.4036C110.784 25.251 111.622 25.6748 112.682 25.6748H112.834C113.354 25.6748 113.849 25.5515 114.319 25.3051C115.201 24.8363 115.845 23.9528 116.252 22.6546C116.467 21.9755 116.575 21.2994 116.575 20.6262L116.594 20.3197V19.7157ZM118.841 19.6436V20.2476C118.841 21.1431 118.692 22.0236 118.393 22.889C117.822 24.5539 116.816 25.7258 115.376 26.405C114.538 26.8017 113.684 27 112.815 27H112.387C111.682 27 110.994 26.8558 110.321 26.5673C108.982 26.0023 108.074 25.0287 107.598 23.6463C107.319 22.835 107.18 21.9995 107.18 21.1401V20.7344C107.18 19.881 107.329 19.0065 107.627 18.111C107.932 17.2154 108.363 16.4642 108.922 15.8571C109.48 15.2441 110.127 14.7813 110.864 14.4688C111.6 14.1563 112.352 14 113.12 14H113.548C114.36 14 115.087 14.1472 115.728 14.4417C116.978 15.0187 117.848 15.9233 118.336 17.1553C118.673 18.0028 118.841 18.8322 118.841 19.6436Z" fill="black"/>
<path d="M130.283 19.7157C130.283 19.6976 130.283 19.6796 130.283 19.6616C130.283 19.1387 130.197 18.5767 130.026 17.9757C129.715 16.8638 129.185 16.0975 128.436 15.6768C127.979 15.4184 127.529 15.2892 127.085 15.2892H126.637C126.104 15.2892 125.596 15.4454 125.114 15.758C124.213 16.341 123.594 17.2335 123.258 18.4355C123.048 19.1808 122.944 19.917 122.944 20.6442V21.2483C122.944 22.4984 123.248 23.5502 123.857 24.4036C124.473 25.251 125.311 25.6748 126.371 25.6748H126.523C127.043 25.6748 127.538 25.5515 128.008 25.3051C128.89 24.8363 129.534 23.9528 129.94 22.6546C130.156 21.9755 130.264 21.2994 130.264 20.6262L130.283 20.3197V19.7157ZM132.53 19.6436V20.2476C132.53 21.1431 132.38 22.0236 132.082 22.889C131.511 24.5539 130.505 25.7258 129.065 26.405C128.227 26.8017 127.373 27 126.504 27H126.076C125.371 27 124.683 26.8558 124.01 26.5673C122.671 26.0023 121.763 25.0287 121.287 23.6463C121.008 22.835 120.868 21.9995 120.868 21.1401V20.7344C120.868 19.881 121.018 19.0065 121.316 18.111C121.62 17.2154 122.052 16.4642 122.61 15.8571C123.169 15.2441 123.816 14.7813 124.552 14.4688C125.289 14.1563 126.041 14 126.808 14H127.237C128.049 14 128.776 14.1472 129.417 14.4417C130.667 15.0187 131.536 15.9233 132.025 17.1553C132.361 18.0028 132.53 18.8322 132.53 19.6436Z" fill="black"/>
<path d="M135.252 14.9646C135.252 14.5199 135.681 14.2975 136.537 14.2975C136.956 14.2975 137.308 14.3847 137.594 14.5589C137.88 14.7332 138.022 14.9887 138.022 15.3252C138.022 15.3914 137.968 15.6528 137.86 16.1096C137.753 16.5663 137.699 17.2936 137.699 18.2913C137.699 18.9524 137.819 19.2829 138.06 19.2829C138.403 19.2829 139.06 18.7661 140.031 17.7323C141.002 16.6986 141.624 15.9593 141.897 15.5146C142.176 15.0698 142.344 14.8174 142.401 14.7573C142.693 14.4448 143.147 14.2885 143.762 14.2885C144.378 14.2885 144.686 14.4478 144.686 14.7663C144.686 14.9226 144.223 15.4545 143.296 16.362C142.376 17.2695 141.633 18.0929 141.069 18.8322C140.789 19.1988 140.65 19.5474 140.65 19.8779C140.65 20.0763 141.132 20.8756 142.097 22.276C143.061 23.6764 143.785 24.653 144.267 25.206C144.756 25.7529 145 26.1165 145 26.2968C145 26.5853 144.68 26.7295 144.039 26.7295C143.398 26.7295 142.899 26.5643 142.544 26.2337C142.462 26.1556 142.059 25.5606 141.335 24.4487C140.618 23.3308 140.155 22.6366 139.945 22.3662C139.418 21.699 138.965 21.3655 138.584 21.3655C138.267 21.3655 138.003 21.6509 137.794 22.2219C137.584 22.7929 137.48 23.442 137.48 24.1692C137.48 24.1872 137.499 24.3826 137.537 24.7552L137.594 25.2871C137.594 25.7258 137.432 26.0594 137.108 26.2878C136.785 26.5102 136.382 26.6214 135.899 26.6214C135.424 26.6214 135.125 26.5583 135.005 26.432C134.884 26.2998 134.824 26.1676 134.824 26.0354C134.824 25.8971 134.897 25.6417 135.043 25.2691C135.195 24.8964 135.3 24.4307 135.357 23.8717C135.509 22.3031 135.585 20.6503 135.585 18.9133C135.585 17.1704 135.557 16.1817 135.5 15.9473L135.424 15.6859L135.338 15.4424C135.281 15.2621 135.252 15.1029 135.252 14.9646Z" fill="black"/>
</svg>
